<?xml version="1.0" standalone="no"?>
<!DOCTYPE svg PUBLIC "-//W3C//DTD SVG 20010904//EN"
 "http://www.w3.org/TR/2001/REC-SVG-20010904/DTD/svg10.dtd">
<svg version="1.0" xmlns="http://www.w3.org/2000/svg"
 width="500.000000pt" height="500.000000pt" viewBox="0 0 500.000000 500.000000"
 preserveAspectRatio="xMidYMid meet">

<g transform="translate(0.000000,500.000000) scale(0.100000,-0.100000)"
fill="#000000" stroke="none">
<path d="M2335 4994 c-313 -31 -515 -78 -762 -176 -151 -59 -228 -97 -355
-174 -592 -358 -995 -911 -1152 -1584 -85 -362 -81 -776 9 -1135 176 -695 590
-1237 1216 -1592 246 -140 604 -255 914 -294 128 -17 452 -16 575 0 828 111
1518 584 1905 1305 137 256 230 553 276 881 19 133 16 464 -5 610 -116 808
-590 1489 -1300 1870 -238 128 -533 224 -811 266 -123 18 -422 32 -510 23z
m-459 -396 c63 -46 204 -148 314 -227 l200 -144 0 -349 0 -348 -117 -87 c-65
-48 -129 -94 -143 -101 -14 -7 -36 -24 -50 -36 -14 -13 -112 -85 -219 -162
-106 -76 -245 -176 -309 -222 l-115 -84 -206 70 c-113 38 -259 86 -323 106
l-117 36 -20 63 c-10 34 -60 190 -111 346 -79 242 -91 287 -81 308 26 58 175
238 295 359 177 177 368 318 566 419 85 43 291 132 314 134 4 1 59 -36 122
-81z m1461 38 c309 -124 573 -302 803 -542 102 -107 270 -321 270 -345 0 -12
-217 -689 -223 -695 -1 -1 -56 -19 -122 -39 -66 -20 -208 -66 -315 -101 -107
-35 -201 -64 -208 -64 -8 0 -69 39 -135 87 -289 207 -485 349 -523 380 -23 18
-44 33 -47 33 -3 0 -60 41 -126 90 l-121 91 0 348 0 347 200 145 c110 79 251
181 313 226 62 45 115 82 119 83 3 0 55 -20 115 -44z m1108 -1906 c99 -70 215
-151 257 -181 l77 -54 1 -63 c1 -211 -64 -521 -161 -765 -51 -128 -147 -315
-198 -387 l-39 -54 -338 -53 -338 -54 -223 223 c-123 123 -223 229 -223 237 0
18 32 118 209 664 l136 418 145 46 c80 25 224 72 320 103 96 32 180 55 185 52
6 -3 91 -63 190 -132z m-3496 64 c113 -37 256 -83 316 -103 l110 -36 136 -415
c158 -480 229 -703 229 -718 0 -6 -105 -115 -232 -242 l-233 -232 -300 47
c-165 26 -310 53 -322 61 -11 7 -50 57 -85 111 -212 324 -346 732 -364 1108
l-6 120 34 22 c18 11 134 93 258 182 124 88 231 160 239 160 8 1 107 -29 220
-65z m2399 -1596 c145 -145 212 -219 212 -233 0 -58 -81 -519 -92 -527 -7 -4
-69 -30 -138 -57 -313 -123 -577 -169 -915 -158 -208 6 -362 30 -545 83 -133
38 -363 128 -378 147 -8 12 -72 402 -72 442 0 13 90 110 247 267 l248 248 610
0 610 0 213 -212z"/>
</g>
</svg>
