<svg xmlns="http://www.w3.org/2000/svg" xmlns:xlink="http://www.w3.org/1999/xlink" version="1.1" width="256" height="256" viewBox="0 0 256 256" xml:space="preserve">

<defs>
</defs>
<g style="stroke: none; stroke-width: 0; stroke-dasharray: none; stroke-linecap: butt; stroke-linejoin: miter; stroke-miterlimit: 10; fill: none; fill-rule: nonzero; opacity: 1;" transform="translate(1.4065934065934016 1.4065934065934016) scale(2.81 2.81)" >
	<path d="M 45.266 68.251 c -11.814 0 -21.425 -9.611 -21.425 -21.425 c 0 -10.188 8.417 -39.631 21.425 -39.631 c 13.008 0 21.425 29.442 21.425 39.631 C 66.69 58.64 57.079 68.251 45.266 68.251 z M 45.266 11.195 c -8.678 0 -17.425 24.431 -17.425 35.631 c 0 9.608 7.817 17.425 17.425 17.425 S 62.69 56.435 62.69 46.826 C 62.69 35.626 53.943 11.195 45.266 11.195 z" style="stroke: none; stroke-width: 1; stroke-dasharray: none; stroke-linecap: butt; stroke-linejoin: miter; stroke-miterlimit: 10; fill: rgb(0,0,0); fill-rule: nonzero; opacity: 1;" transform=" matrix(1 0 0 1 0 0) " stroke-linecap="round" />
	<path d="M 45.305 82.805 c -1.104 0 -2 -0.896 -2 -2 V 37.678 c 0 -1.104 0.896 -2 2 -2 s 2 0.896 2 2 v 43.126 C 47.305 81.909 46.409 82.805 45.305 82.805 z" style="stroke: none; stroke-width: 1; stroke-dasharray: none; stroke-linecap: butt; stroke-linejoin: miter; stroke-miterlimit: 10; fill: rgb(0,0,0); fill-rule: nonzero; opacity: 1;" transform=" matrix(1 0 0 1 0 0) " stroke-linecap="round" />
	<path d="M 45.305 48.271 c -0.538 0 -1.075 -0.216 -1.469 -0.643 c -0.75 -0.811 -0.701 -2.076 0.11 -2.826 l 5.846 -5.406 c 0.81 -0.751 2.077 -0.699 2.826 0.11 c 0.75 0.811 0.7 2.076 -0.111 2.826 l -5.846 5.406 C 46.278 48.095 45.791 48.271 45.305 48.271 z" style="stroke: none; stroke-width: 1; stroke-dasharray: none; stroke-linecap: butt; stroke-linejoin: miter; stroke-miterlimit: 10; fill: rgb(0,0,0); fill-rule: nonzero; opacity: 1;" transform=" matrix(1 0 0 1 0 0) " stroke-linecap="round" />
	<path d="M 45.304 56.579 c -0.486 0 -0.973 -0.176 -1.357 -0.532 l -8.164 -7.551 c -0.811 -0.75 -0.86 -2.015 -0.11 -2.826 c 0.75 -0.811 2.015 -0.861 2.826 -0.11 l 8.164 7.551 c 0.811 0.75 0.86 2.015 0.109 2.826 C 46.379 56.363 45.842 56.579 45.304 56.579 z" style="stroke: none; stroke-width: 1; stroke-dasharray: none; stroke-linecap: butt; stroke-linejoin: miter; stroke-miterlimit: 10; fill: rgb(0,0,0); fill-rule: nonzero; opacity: 1;" transform=" matrix(1 0 0 1 0 0) " stroke-linecap="round" />
	<path d="M 73.223 71.733 c -6.95 0 -13.263 -4.369 -15.709 -10.873 c -0.389 -1.034 0.134 -2.188 1.168 -2.576 c 1.029 -0.388 2.187 0.134 2.576 1.168 c 1.862 4.953 6.671 8.281 11.965 8.281 C 80.269 67.733 86 62.002 86 54.956 s -5.731 -12.777 -12.777 -12.777 c -2.764 0 -5.394 0.868 -7.605 2.509 c -0.888 0.66 -2.141 0.472 -2.799 -0.414 c -0.658 -0.887 -0.473 -2.14 0.414 -2.798 c 2.907 -2.157 6.361 -3.297 9.99 -3.297 C 82.474 38.179 90 45.705 90 54.956 S 82.474 71.733 73.223 71.733 z" style="stroke: none; stroke-width: 1; stroke-dasharray: none; stroke-linecap: butt; stroke-linejoin: miter; stroke-miterlimit: 10; fill: rgb(0,0,0); fill-rule: nonzero; opacity: 1;" transform=" matrix(1 0 0 1 0 0) " stroke-linecap="round" />
	<path d="M 73.252 82.805 c -1.104 0 -2 -0.896 -2 -2 V 51.69 c 0 -1.104 0.896 -2 2 -2 s 2 0.896 2 2 v 29.114 C 75.252 81.909 74.356 82.805 73.252 82.805 z" style="stroke: none; stroke-width: 1; stroke-dasharray: none; stroke-linecap: butt; stroke-linejoin: miter; stroke-miterlimit: 10; fill: rgb(0,0,0); fill-rule: nonzero; opacity: 1;" transform=" matrix(1 0 0 1 0 0) " stroke-linecap="round" />
	<path d="M 73.252 60.227 c -0.538 0 -1.074 -0.216 -1.469 -0.643 c -0.75 -0.811 -0.7 -2.076 0.111 -2.826 l 4.447 -4.112 c 0.813 -0.751 2.076 -0.699 2.826 0.111 s 0.7 2.076 -0.111 2.826 l -4.447 4.112 C 74.225 60.051 73.738 60.227 73.252 60.227 z" style="stroke: none; stroke-width: 1; stroke-dasharray: none; stroke-linecap: butt; stroke-linejoin: miter; stroke-miterlimit: 10; fill: rgb(0,0,0); fill-rule: nonzero; opacity: 1;" transform=" matrix(1 0 0 1 0 0) " stroke-linecap="round" />
	<path d="M 73.251 66.548 c -0.485 0 -0.973 -0.176 -1.357 -0.532 l -6.21 -5.744 c -0.811 -0.75 -0.859 -2.015 -0.109 -2.826 c 0.749 -0.812 2.016 -0.86 2.826 -0.109 l 6.21 5.744 c 0.811 0.75 0.859 2.015 0.109 2.826 C 74.326 66.332 73.789 66.548 73.251 66.548 z" style="stroke: none; stroke-width: 1; stroke-dasharray: none; stroke-linecap: butt; stroke-linejoin: miter; stroke-miterlimit: 10; fill: rgb(0,0,0); fill-rule: nonzero; opacity: 1;" transform=" matrix(1 0 0 1 0 0) " stroke-linecap="round" />
	<path d="M 18.935 82.805 c -1.104 0 -2 -0.896 -2 -2 V 52.522 c 0 -1.104 0.896 -2 2 -2 s 2 0.896 2 2 v 28.282 C 20.935 81.909 20.04 82.805 18.935 82.805 z" style="stroke: none; stroke-width: 1; stroke-dasharray: none; stroke-linecap: butt; stroke-linejoin: miter; stroke-miterlimit: 10; fill: rgb(0,0,0); fill-rule: nonzero; opacity: 1;" transform=" matrix(1 0 0 1 0 0) " stroke-linecap="round" />
	<path d="M 18.936 61.08 c -0.538 0 -1.075 -0.216 -1.469 -0.642 c -0.75 -0.812 -0.701 -2.077 0.11 -2.827 l 4.461 -4.126 c 0.811 -0.749 2.076 -0.7 2.826 0.11 c 0.75 0.812 0.701 2.077 -0.11 2.827 l -4.461 4.126 C 19.908 60.904 19.421 61.08 18.936 61.08 z" style="stroke: none; stroke-width: 1; stroke-dasharray: none; stroke-linecap: butt; stroke-linejoin: miter; stroke-miterlimit: 10; fill: rgb(0,0,0); fill-rule: nonzero; opacity: 1;" transform=" matrix(1 0 0 1 0 0) " stroke-linecap="round" />
	<path d="M 18.935 67.421 c -0.486 0 -0.973 -0.176 -1.357 -0.531 l -6.23 -5.762 c -0.811 -0.75 -0.86 -2.016 -0.11 -2.827 c 0.75 -0.81 2.015 -0.859 2.826 -0.11 l 6.23 5.762 c 0.811 0.75 0.86 2.016 0.11 2.827 C 20.009 67.205 19.473 67.421 18.935 67.421 z" style="stroke: none; stroke-width: 1; stroke-dasharray: none; stroke-linecap: butt; stroke-linejoin: miter; stroke-miterlimit: 10; fill: rgb(0,0,0); fill-rule: nonzero; opacity: 1;" transform=" matrix(1 0 0 1 0 0) " stroke-linecap="round" />
	<path d="M 30.355 73.779 H 7.456 C 3.345 73.779 0 70.435 0 66.323 c 0 -2.354 1.119 -4.541 2.948 -5.934 c -0.09 -0.58 -0.136 -1.165 -0.136 -1.75 c 0 -3.627 1.748 -7.045 4.632 -9.193 c 0 -0.023 0 -0.047 0 -0.07 c 0 -6.32 5.142 -11.461 11.461 -11.461 c 3.178 0 6.24 1.336 8.402 3.666 c 0.751 0.81 0.704 2.075 -0.105 2.826 c -0.81 0.751 -2.075 0.704 -2.826 -0.105 c -1.429 -1.539 -3.372 -2.387 -5.471 -2.387 c -4.114 0 -7.461 3.347 -7.461 7.461 c 0 0.294 0.022 0.581 0.055 0.865 c 0.092 0.789 -0.292 1.558 -0.978 1.958 c -2.288 1.337 -3.709 3.805 -3.709 6.44 c 0 0.72 0.106 1.439 0.316 2.141 c 0.287 0.959 -0.18 1.982 -1.092 2.396 C 4.799 63.735 4 64.971 4 66.323 c 0 1.905 1.55 3.456 3.456 3.456 h 22.899 c 1.905 0 3.456 -1.551 3.456 -3.456 c 0 -0.677 -0.195 -1.331 -0.565 -1.892 c -0.608 -0.922 -0.354 -2.162 0.568 -2.771 c 0.924 -0.61 2.163 -0.354 2.771 0.567 c 0.802 1.216 1.227 2.632 1.227 4.095 C 37.811 70.435 34.466 73.779 30.355 73.779 z" style="stroke: none; stroke-width: 1; stroke-dasharray: none; stroke-linecap: butt; stroke-linejoin: miter; stroke-miterlimit: 10; fill: rgb(0,0,0); fill-rule: nonzero; opacity: 1;" transform=" matrix(1 0 0 1 0 0) " stroke-linecap="round" />
	<path d="M 88 82.805 H 2 c -1.104 0 -2 -0.896 -2 -2 s 0.896 -2 2 -2 h 86 c 1.104 0 2 0.896 2 2 S 89.104 82.805 88 82.805 z" style="stroke: none; stroke-width: 1; stroke-dasharray: none; stroke-linecap: butt; stroke-linejoin: miter; stroke-miterlimit: 10; fill: rgb(0,0,0); fill-rule: nonzero; opacity: 1;" transform=" matrix(1 0 0 1 0 0) " stroke-linecap="round" />
</g>
</svg>